<?xml version="1.0" standalone="no"?><!DOCTYPE svg PUBLIC "-//W3C//DTD SVG 1.1//EN" "http://www.w3.org/Graphics/SVG/1.1/DTD/svg11.dtd"><svg t="1782968627232" class="icon" viewBox="0 0 1024 1024" version="1.1" xmlns="http://www.w3.org/2000/svg" p-id="1667" xmlns:xlink="http://www.w3.org/1999/xlink" width="200" height="200"><path d="M89.6 217.6h844.8c32 0 57.6-25.6 57.6-57.6s-25.6-57.6-57.6-57.6H89.6c-32 0-57.6 25.6-57.6 57.6 0 38.4 25.6 57.6 57.6 57.6zM934.4 454.4H89.6c-32 0-57.6 25.6-57.6 57.6s25.6 57.6 57.6 57.6h844.8c32 0 57.6-25.6 57.6-57.6s-25.6-57.6-57.6-57.6zM934.4 806.4H89.6c-32 0-57.6 25.6-57.6 57.6s25.6 57.6 57.6 57.6h844.8c32 0 57.6-25.6 57.6-57.6 0-38.4-25.6-57.6-57.6-57.6z" fill="#f6f6f6" p-id="1668"></path></svg>